<svg width="13" height="22" viewBox="0 0 13 22" fill="none" xmlns="http://www.w3.org/2000/svg">
<path d="M12.9658 14.5625V6.25342C12.9658 5.88265 12.8496 5.58105 12.6172 5.34863C12.3903 5.11621 12.0859 5 11.7041 5H3.39502C3.04085 5 2.74479 5.11621 2.50684 5.34863C2.27441 5.58105 2.1582 5.85775 2.1582 6.17871C2.1582 6.49414 2.27718 6.76253 2.51514 6.98389C2.75309 7.20524 3.04085 7.31592 3.37842 7.31592H6.45801L9.18896 7.21631L7.73633 8.50293L0.406738 15.8491C0.135579 16.1258 0 16.4219 0 16.7373C0 16.9476 0.0581055 17.1468 0.174316 17.335C0.290527 17.5176 0.439941 17.667 0.622559 17.7832C0.805176 17.8994 1.00439 17.9575 1.22021 17.9575C1.54118 17.9575 1.83724 17.8219 2.1084 17.5508L9.45459 10.2212L10.7495 8.76025L10.6416 11.4082V14.5708C10.6416 14.9139 10.7495 15.2044 10.9653 15.4424C11.1867 15.6803 11.4578 15.7993 11.7788 15.7993C12.1053 15.7993 12.3848 15.6803 12.6172 15.4424C12.8496 15.2044 12.9658 14.9111 12.9658 14.5625Z" fill="#FB24FF"/>
</svg>
